Facade-Bold.ufo
<glyph name="one" format="2">
  <advance width="750"/>
  <unicode hex="0031"/>
  <outline>
    <contour>
      <point x="340" y="0" type="line"/>
      <point x="510" y="0" type="line"/>
      <point x="510" y="932" type="line"/>
      <point x="150" y="752" type="line"/>
      <point x="150" y="582" type="line"/>
      <point x="395" y="706" type="line"/>
      <point x="340" y="761" type="line"/>
    </contour>
    <contour>
      <point x="150" y="0" type="line"/>
      <point x="660" y="0" type="line"/>
      <point x="660" y="144" type="line"/>
      <point x="150" y="144" type="line"/>
    </contour>
  </outline>
</glyph>
<glyph name="five" format="2">
  <advance width="750"/>
  <unicode hex="0035"/>
  <outline>
    <contour>
      <point x="324" y="-20" type="curve" smooth="yes"/>
      <point x="505" y="-20"/>
      <point x="654" y="119"/>
      <point x="654" y="300" type="curve" smooth="yes"/>
      <point x="654" y="478"/>
      <point x="511" y="606"/>
      <point x="352" y="606" type="curve" smooth="yes"/>
      <point x="335" y="606"/>
      <point x="320" y="605"/>
      <point x="306" y="601" type="curve"/>
      <point x="306" y="744" type="line"/>
      <point x="594" y="744" type="line"/>
      <point x="594" y="900" type="line"/>
      <point x="162" y="900" type="line"/>
      <point x="162" y="390" type="line"/>
      <point x="201" y="431"/>
      <point x="255" y="458"/>
      <point x="315" y="458" type="curve" smooth="yes"/>
      <point x="407" y="458"/>
      <point x="484" y="397"/>
      <point x="484" y="302" type="curve" smooth="yes"/>
      <point x="484" y="210"/>
      <point x="411" y="142"/>
      <point x="322" y="142" type="curve" smooth="yes"/>
      <point x="231" y="142"/>
      <point x="160" y="211"/>
      <point x="139" y="295" type="curve"/>
      <point x="48" y="116" type="line"/>
      <point x="106" y="35"/>
      <point x="208" y="-20"/>
    </contour>
  </outline>
</glyph>
<glyph name="seven" format="2">
  <advance width="750"/>
  <unicode hex="0037"/>
  <outline>
    <contour>
      <point x="104" y="0" type="line"/>
      <point x="302" y="0" type="line"/>
      <point x="725" y="900" type="line"/>
      <point x="72" y="900" type="line"/>
      <point x="72" y="738" type="line"/>
      <point x="555" y="738" type="line"/>
      <point x="497" y="825" type="line"/>
    </contour>
  </outline>
</glyph>
<glyph name="backslash" format="2">
  <advance width="540"/>
  <unicode hex="005C"/>
  <outline>
    <contour>
      <point x="467" y="-180" type="line"/>
      <point x="620" y="-180" type="line"/>
      <point x="74" y="960" type="line"/>
      <point x="-80" y="960" type="line"/>
    </contour>
  </outline>
</glyph>
<glyph name="u" format="2">
  <advance width="700"/>
  <unicode hex="0075"/>
  <anchor x="348" y="0" name="bottom"/>
  <anchor x="562" y="0" name="ogonek"/>
  <anchor x="348" y="600" name="top"/>
  <anchor x="558" y="600" name="topright"/>
  <outline>
    <contour>
      <point x="298" y="-20" type="curve" smooth="yes"/>
      <point x="426" y="-20"/>
      <point x="532" y="74"/>
      <point x="532" y="245" type="curve"/>
      <point x="460" y="262" type="line"/>
      <point x="460" y="180"/>
      <point x="404" y="136"/>
      <point x="344" y="136" type="curve" smooth="yes"/>
      <point x="270" y="136"/>
      <point x="228" y="197"/>
      <point x="228" y="264" type="curve" smooth="yes"/>
      <point x="228" y="600" type="line"/>
      <point x="54" y="600" type="line"/>
      <point x="54" y="241" type="line" smooth="yes"/>
      <point x="54" y="75"/>
      <point x="171" y="-20"/>
    </contour>
    <contour>
      <point x="476" y="0" type="line"/>
      <point x="634" y="0" type="line"/>
      <point x="634" y="600" type="line"/>
      <point x="460" y="600" type="line"/>
      <point x="460" y="187" type="line"/>
      <point x="476" y="160" type="line"/>
    </contour>
  </outline>
</glyph>
<glyph name="x" format="2">
  <advance width="640"/>
  <unicode hex="0078"/>
  <outline>
    <contour>
      <point x="12" y="0" type="line"/>
      <point x="202" y="0" type="line"/>
      <point x="283" y="131" type="line" smooth="yes"/>
      <point x="311" y="177"/>
      <point x="340" y="228"/>
      <point x="359" y="282" type="curve"/>
      <point x="277" y="282" type="line"/>
      <point x="296" y="228"/>
      <point x="325" y="177"/>
      <point x="353" y="131" type="curve" smooth="yes"/>
      <point x="434" y="0" type="line"/>
      <point x="628" y="0" type="line"/>
      <point x="420" y="313" type="line"/>
      <point x="611" y="600" type="line"/>
      <point x="421" y="600" type="line"/>
      <point x="364" y="508" type="line" smooth="yes"/>
      <point x="336" y="462"/>
      <point x="308" y="412"/>
      <point x="289" y="358" type="curve"/>
      <point x="353" y="358" type="line"/>
      <point x="334" y="412"/>
      <point x="307" y="464"/>
      <point x="279" y="508" type="curve" smooth="yes"/>
      <point x="221" y="600" type="line"/>
      <point x="29" y="600" type="line"/>
      <point x="219" y="313" type="line"/>
    </contour>
  </outline>
</glyph>
<glyph name="z" format="2">
  <advance width="530"/>
  <unicode hex="007A"/>
  <anchor x="257" y="0" name="bottom"/>
  <anchor x="265" y="300" name="center"/>
  <anchor x="274" y="600" name="top"/>
  <outline>
    <contour>
      <point x="229" y="76" type="line"/>
      <point x="178" y="144" type="line"/>
      <point x="490" y="144" type="line"/>
      <point x="490" y="0" type="line"/>
      <point x="22" y="0" type="line"/>
      <point x="301" y="524" type="line"/>
      <point x="352" y="456" type="line"/>
      <point x="42" y="456" type="line"/>
      <point x="42" y="600" type="line"/>
      <point x="508" y="600" type="line"/>
    </contour>
  </outline>
</glyph>
<glyph name="exclamdown" format="2">
  <advance width="480"/>
  <unicode hex="00A1"/>
  <outline>
    <contour>
      <point x="138" y="-300" type="line"/>
      <point x="342" y="-300" type="line"/>
      <point x="306" y="270" type="line"/>
      <point x="174" y="270" type="line"/>
    </contour>
    <contour>
      <point x="240" y="410" type="curve" smooth="yes"/>
      <point x="299" y="410"/>
      <point x="345" y="456"/>
      <point x="345" y="515" type="curve" smooth="yes"/>
      <point x="345" y="574"/>
      <point x="299" y="620"/>
      <point x="240" y="620" type="curve" smooth="yes"/>
      <point x="181" y="620"/>
      <point x="135" y="574"/>
      <point x="135" y="515" type="curve" smooth="yes"/>
      <point x="135" y="456"/>
      <point x="181" y="410"/>
    </contour>
  </outline>
</glyph>
<glyph name="brokenbar" format="2">
  <advance width="480"/>
  <unicode hex="00A6"/>
  <outline>
    <contour>
      <point x="168" y="-180" type="line"/>
      <point x="312" y="-180" type="line"/>
      <point x="312" y="240" type="line"/>
      <point x="168" y="240" type="line"/>
    </contour>
    <contour>
      <point x="168" y="540" type="line"/>
      <point x="312" y="540" type="line"/>
      <point x="312" y="960" type="line"/>
      <point x="168" y="960" type="line"/>
    </contour>
  </outline>
</glyph>
<glyph name="divide" format="2">
  <advance width="750"/>
  <unicode hex="00F7"/>
  <outline>
    <contour>
      <point x="50" y="378" type="line"/>
      <point x="700" y="378" type="line"/>
      <point x="700" y="522" type="line"/>
      <point x="50" y="522" type="line"/>
    </contour>
    <contour>
      <point x="375" y="111" type="curve" smooth="yes"/>
      <point x="432" y="111"/>
      <point x="474" y="154"/>
      <point x="474" y="210" type="curve" smooth="yes"/>
      <point x="474" y="266"/>
      <point x="432" y="309"/>
      <point x="375" y="309" type="curve" smooth="yes"/>
      <point x="319" y="309"/>
      <point x="276" y="266"/>
      <point x="276" y="210" type="curve" smooth="yes"/>
      <point x="276" y="154"/>
      <point x="319" y="111"/>
    </contour>
    <contour>
      <point x="375" y="591" type="curve" smooth="yes"/>
      <point x="432" y="591"/>
      <point x="474" y="634"/>
      <point x="474" y="690" type="curve" smooth="yes"/>
      <point x="474" y="746"/>
      <point x="432" y="789"/>
      <point x="375" y="789" type="curve" smooth="yes"/>
      <point x="319" y="789"/>
      <point x="276" y="746"/>
      <point x="276" y="690" type="curve" smooth="yes"/>
      <point x="276" y="634"/>
      <point x="319" y="591"/>
    </contour>
  </outline>
</glyph>
<glyph name="eogonek" format="2">
  <advance width="690"/>
  <unicode hex="0119"/>
  <anchor x="355" y="600" name="top"/>
  <outline>
    <contour>
      <point x="548" y="-318" type="curve"/>
      <point x="578" y="-190" type="line"/>
      <point x="532" y="-189"/>
      <point x="497" y="-166"/>
      <point x="497" y="-116" type="curve" smooth="yes"/>
      <point x="497" y="-74"/>
      <point x="522" y="-36"/>
      <point x="596" y="48" type="curve"/>
      <point x="546" y="254" type="line"/>
      <point x="576" y="222" type="line"/>
      <point x="540" y="169"/>
      <point x="470" y="124"/>
      <point x="381" y="124" type="curve" smooth="yes"/>
      <point x="266" y="124"/>
      <point x="196" y="198"/>
      <point x="196" y="300" type="curve"/>
      <point x="187" y="300" type="line"/>
      <point x="187" y="410"/>
      <point x="255" y="482"/>
      <point x="348" y="482" type="curve" smooth="yes"/>
      <point x="446" y="482"/>
      <point x="509" y="410"/>
      <point x="509" y="300" type="curve"/>
      <point x="538" y="356" type="line"/>
      <point x="496" y="369"/>
      <point x="453" y="375"/>
      <point x="400" y="375" type="curve" smooth="yes"/>
      <point x="294" y="375" type="line" smooth="yes"/>
      <point x="247" y="375"/>
      <point x="205" y="367"/>
      <point x="158" y="355" type="curve"/>
      <point x="158" y="269" type="line"/>
      <point x="205" y="257"/>
      <point x="247" y="249"/>
      <point x="294" y="249" type="curve" smooth="yes"/>
      <point x="660" y="249" type="line"/>
      <point x="660" y="310" type="line" smooth="yes"/>
      <point x="660" y="487"/>
      <point x="527" y="620"/>
      <point x="350" y="620" type="curve" smooth="yes"/>
      <point x="175" y="620"/>
      <point x="36" y="487"/>
      <point x="36" y="306" type="curve" smooth="yes"/>
      <point x="36" y="116"/>
      <point x="174" y="-20"/>
      <point x="377" y="-20" type="curve" smooth="yes"/>
      <point x="412" y="-20"/>
      <point x="447" y="-15"/>
      <point x="480" y="-4" type="curve"/>
      <point x="463" y="38" type="line"/>
      <point x="372" y="-32"/>
      <point x="347" y="-100"/>
      <point x="347" y="-153" type="curve" smooth="yes"/>
      <point x="347" y="-266"/>
      <point x="432" y="-318"/>
    </contour>
  </outline>
</glyph>
<glyph name="Schwa" format="2">
  <advance width="1050"/>
  <unicode hex="018F"/>
  <outline>
    <contour>
      <point x="520" y="-18" type="curve" smooth="yes"/>
      <point x="783" y="-18"/>
      <point x="996" y="191"/>
      <point x="996" y="450" type="curve" smooth="yes"/>
      <point x="996" y="709"/>
      <point x="783" y="918"/>
      <point x="520" y="918" type="curve" smooth="yes"/>
      <point x="397" y="918"/>
      <point x="289" y="877"/>
      <point x="206" y="807" type="curve"/>
      <point x="257" y="601" type="line"/>
      <point x="308" y="684"/>
      <point x="398" y="748"/>
      <point x="520" y="748" type="curve" smooth="yes"/>
      <point x="685" y="748"/>
      <point x="814" y="616"/>
      <point x="814" y="450" type="curve" smooth="yes"/>
      <point x="814" y="284"/>
      <point x="685" y="150"/>
      <point x="520" y="150" type="curve" smooth="yes"/>
      <point x="355" y="150"/>
      <point x="226" y="284"/>
      <point x="226" y="450" type="curve"/>
      <point x="166" y="384" type="line"/>
      <point x="754" y="384" type="line" smooth="yes"/>
      <point x="811" y="384"/>
      <point x="869" y="392"/>
      <point x="926" y="404" type="curve"/>
      <point x="926" y="514" type="line"/>
      <point x="869" y="526"/>
      <point x="811" y="534"/>
      <point x="754" y="534" type="curve" smooth="yes"/>
      <point x="44" y="534" type="line"/>
      <point x="44" y="450" type="line" smooth="yes"/>
      <point x="44" y="191"/>
      <point x="257" y="-18"/>
    </contour>
  </outline>
</glyph>
<glyph name="ohorn" format="2">
  <advance width="770"/>
  <unicode hex="01A1"/>
  <anchor x="360" y="0" name="bottom"/>
  <anchor x="360" y="600" name="top"/>
  <outline>
    <contour>
      <point x="360" y="-20" type="curve" smooth="yes"/>
      <point x="539" y="-20"/>
      <point x="684" y="123"/>
      <point x="684" y="300" type="curve" smooth="yes"/>
      <point x="684" y="477"/>
      <point x="539" y="620"/>
      <point x="360" y="620" type="curve" smooth="yes"/>
      <point x="181" y="620"/>
      <point x="36" y="477"/>
      <point x="36" y="300" type="curve" smooth="yes"/>
      <point x="36" y="123"/>
      <point x="181" y="-20"/>
    </contour>
    <contour>
      <point x="360" y="136" type="curve" smooth="yes"/>
      <point x="270" y="136"/>
      <point x="199" y="209"/>
      <point x="199" y="300" type="curve" smooth="yes"/>
      <point x="199" y="391"/>
      <point x="270" y="464"/>
      <point x="360" y="464" type="curve" smooth="yes"/>
      <point x="449" y="464"/>
      <point x="521" y="391"/>
      <point x="521" y="300" type="curve" smooth="yes"/>
      <point x="521" y="209"/>
      <point x="449" y="136"/>
    </contour>
    <contour>
      <point x="616" y="398" type="line"/>
      <point x="695" y="398"/>
      <point x="766" y="458"/>
      <point x="766" y="568" type="curve" smooth="yes"/>
      <point x="766" y="597"/>
      <point x="761" y="628"/>
      <point x="742" y="660" type="curve"/>
      <point x="598" y="660" type="line"/>
      <point x="617" y="627"/>
      <point x="622" y="592"/>
      <point x="622" y="568" type="curve" smooth="yes"/>
      <point x="622" y="503"/>
      <point x="585" y="476"/>
      <point x="538" y="476" type="curve"/>
    </contour>
  </outline>
</glyph>
<glyph name="Ezh" format="2">
  <advance width="660"/>
  <unicode hex="01B7"/>
  <anchor x="302" y="0" name="bottom"/>
  <anchor x="330" y="900" name="top"/>
  <outline>
    <contour>
      <point x="296" y="-20" type="curve" smooth="yes"/>
      <point x="476" y="-20"/>
      <point x="630" y="118"/>
      <point x="630" y="299" type="curve" smooth="yes"/>
      <point x="630" y="447"/>
      <point x="527" y="565"/>
      <point x="397" y="597" type="curve"/>
      <point x="405" y="536" type="line"/>
      <point x="600" y="900" type="line"/>
      <point x="72" y="900" type="line"/>
      <point x="72" y="744" type="line"/>
      <point x="400" y="744" type="line"/>
      <point x="367" y="790" type="line"/>
      <point x="158" y="382" type="line"/>
      <point x="147" y="408" type="line"/>
      <point x="199" y="441"/>
      <point x="242" y="458"/>
      <point x="294" y="458" type="curve" smooth="yes"/>
      <point x="394" y="458"/>
      <point x="460" y="388"/>
      <point x="460" y="301" type="curve" smooth="yes"/>
      <point x="460" y="211"/>
      <point x="389" y="142"/>
      <point x="298" y="142" type="curve" smooth="yes"/>
      <point x="195" y="142"/>
      <point x="117" y="231"/>
      <point x="109" y="329" type="curve"/>
      <point x="130" y="341" type="line"/>
      <point x="-7" y="70" type="line"/>
      <point x="7" y="143" type="line"/>
      <point x="60" y="48"/>
      <point x="170" y="-20"/>
    </contour>
  </outline>
</glyph>
<glyph name="daggerdbl" format="2">
  <advance width="600"/>
  <unicode hex="2021"/>
  <outline>
    <contour>
      <point x="219" y="0" type="line"/>
      <point x="381" y="0" type="line"/>
      <point x="360" y="217" type="line"/>
      <point x="540" y="202" type="line"/>
      <point x="540" y="337" type="line"/>
      <point x="309" y="323" type="line"/>
      <point x="360" y="234" type="line"/>
      <point x="369" y="450" type="line"/>
      <point x="361" y="666" type="line"/>
      <point x="309" y="577" type="line"/>
      <point x="540" y="563" type="line"/>
      <point x="540" y="698" type="line"/>
      <point x="361" y="683" type="line"/>
      <point x="381" y="900" type="line"/>
      <point x="219" y="900" type="line"/>
      <point x="240" y="683" type="line"/>
      <point x="60" y="698" type="line"/>
      <point x="60" y="563" type="line"/>
      <point x="291" y="577" type="line"/>
      <point x="240" y="666" type="line"/>
      <point x="231" y="450" type="line"/>
      <point x="239" y="234" type="line"/>
      <point x="291" y="323" type="line"/>
      <point x="60" y="337" type="line"/>
      <point x="60" y="202" type="line"/>
      <point x="239" y="217" type="line"/>
    </contour>
  </outline>
</glyph>
<glyph name="notequal" format="2">
  <advance width="750"/>
  <unicode hex="2260"/>
  <outline>
    <contour>
      <point x="171" y="150" type="line"/>
      <point x="287" y="150" type="line"/>
      <point x="579" y="750" type="line"/>
      <point x="463" y="750" type="line"/>
    </contour>
    <contour>
      <point x="80" y="257" type="line"/>
      <point x="670" y="257" type="line"/>
      <point x="670" y="395" type="line"/>
      <point x="80" y="395" type="line"/>
    </contour>
    <contour>
      <point x="80" y="505" type="line"/>
      <point x="670" y="505" type="line"/>
      <point x="670" y="643" type="line"/>
      <point x="80" y="643" type="line"/>
    </contour>
  </outline>
</glyph>
<glyph name="E.ss05" format="2">
  <advance width="750"/>
  <anchor x="348" y="0" name="bottom"/>
  <anchor x="520" y="0" name="ogonek"/>
  <anchor x="348" y="900" name="top"/>
  <anchor x="126" y="900" name="topleft"/>
  <outline>
    <contour>
      <point x="126" y="0" type="line"/>
      <point x="690" y="0" type="line"/>
      <point x="690" y="102" type="line"/>
      <point x="240" y="102" type="line"/>
      <point x="240" y="434" type="line"/>
      <point x="620" y="434" type="line"/>
      <point x="620" y="536" type="line"/>
      <point x="240" y="536" type="line"/>
      <point x="240" y="798" type="line"/>
      <point x="690" y="798" type="line"/>
      <point x="690" y="900" type="line"/>
      <point x="126" y="900" type="line"/>
    </contour>
  </outline>
</glyph>
<glyph name="bracketleft.titl" format="2">
  <advance width="480"/>
  <outline>
    <contour>
      <point x="130" y="-180" type="line"/>
      <point x="420" y="-180" type="line"/>
      <point x="420" y="-110" type="line"/>
      <point x="206" y="-110" type="line"/>
      <point x="206" y="890" type="line"/>
      <point x="420" y="890" type="line"/>
      <point x="420" y="960" type="line"/>
      <point x="130" y="960" type="line"/>
    </contour>
  </outline>
</glyph>
<glyph name="brevecomb_gravecomb" format="2">
  <anchor x="360" y="600" name="_top"/>
  <outline>
    <contour>
      <point x="360" y="663" type="curve" smooth="yes"/>
      <point x="475" y="663"/>
      <point x="564" y="747"/>
      <point x="564" y="861" type="curve"/>
      <point x="450" y="861" type="line"/>
      <point x="450" y="811"/>
      <point x="408" y="771"/>
      <point x="360" y="771" type="curve" smooth="yes"/>
      <point x="312" y="771"/>
      <point x="270" y="811"/>
      <point x="270" y="861" type="curve"/>
      <point x="156" y="861" type="line"/>
      <point x="156" y="749"/>
      <point x="246" y="663"/>
    </contour>
    <contour>
      <point x="309" y="879" type="line"/>
      <point x="435" y="879" type="line"/>
      <point x="366" y="1029" type="line"/>
      <point x="198" y="1029" type="line"/>
    </contour>
  </outline>
</glyph>
<glyph name="dieresiscomb.Adieresis.case" format="2">
  <anchor x="420" y="900" name="_top"/>
  <anchor x="420" y="1071" name="top"/>
  <outline>
    <contour>
      <point x="600" y="906" type="curve" smooth="yes"/>
      <point x="655" y="906"/>
      <point x="696" y="947"/>
      <point x="696" y="1002" type="curve" smooth="yes"/>
      <point x="696" y="1057"/>
      <point x="655" y="1098"/>
      <point x="600" y="1098" type="curve" smooth="yes"/>
      <point x="545" y="1098"/>
      <point x="504" y="1057"/>
      <point x="504" y="1002" type="curve" smooth="yes"/>
      <point x="504" y="947"/>
      <point x="545" y="906"/>
    </contour>
    <contour>
      <point x="240" y="906" type="curve" smooth="yes"/>
      <point x="295" y="906"/>
      <point x="336" y="947"/>
      <point x="336" y="1002" type="curve" smooth="yes"/>
      <point x="336" y="1057"/>
      <point x="295" y="1098"/>
      <point x="240" y="1098" type="curve" smooth="yes"/>
      <point x="185" y="1098"/>
      <point x="144" y="1057"/>
      <point x="144" y="1002" type="curve" smooth="yes"/>
      <point x="144" y="947"/>
      <point x="185" y="906"/>
    </contour>
  </outline>
</glyph>
<glyph name="eight.numr" format="2">
  <advance width="480"/>
  <outline>
    <contour>
      <point x="240" y="402" type="curve" smooth="yes"/>
      <point x="349" y="402"/>
      <point x="441" y="462"/>
      <point x="441" y="567" type="curve" smooth="yes"/>
      <point x="441" y="642"/>
      <point x="392" y="701"/>
      <point x="324" y="722" type="curve"/>
      <point x="348" y="677" type="line"/>
      <point x="380" y="695"/>
      <point x="405" y="731"/>
      <point x="405" y="776" type="curve" smooth="yes"/>
      <point x="405" y="869"/>
      <point x="340" y="918"/>
      <point x="240" y="918" type="curve" smooth="yes"/>
      <point x="140" y="918"/>
      <point x="75" y="855"/>
      <point x="75" y="776" type="curve" smooth="yes"/>
      <point x="75" y="731"/>
      <point x="99" y="695"/>
      <point x="132" y="677" type="curve"/>
      <point x="156" y="722" type="line"/>
      <point x="88" y="701"/>
      <point x="39" y="642"/>
      <point x="39" y="567" type="curve" smooth="yes"/>
      <point x="39" y="462"/>
      <point x="139" y="402"/>
    </contour>
    <contour>
      <point x="240" y="510" type="curve" smooth="yes"/>
      <point x="199" y="510"/>
      <point x="168" y="541"/>
      <point x="168" y="582" type="curve" smooth="yes"/>
      <point x="168" y="623"/>
      <point x="199" y="654"/>
      <point x="240" y="654" type="curve" smooth="yes"/>
      <point x="281" y="654"/>
      <point x="312" y="623"/>
      <point x="312" y="582" type="curve" smooth="yes"/>
      <point x="312" y="541"/>
      <point x="281" y="510"/>
    </contour>
    <contour>
      <point x="240" y="720" type="curve" smooth="yes"/>
      <point x="212" y="720"/>
      <point x="189" y="743"/>
      <point x="189" y="771" type="curve" smooth="yes"/>
      <point x="189" y="799"/>
      <point x="212" y="822"/>
      <point x="240" y="822" type="curve" smooth="yes"/>
      <point x="268" y="822"/>
      <point x="291" y="799"/>
      <point x="291" y="771" type="curve" smooth="yes"/>
      <point x="291" y="743"/>
      <point x="268" y="720"/>
    </contour>
  </outline>
</glyph>
<glyph name="emdash.titl" format="2">
  <advance width="1440"/>
  <outline>
    <contour>
      <point x="60" y="264" type="line"/>
      <point x="1380" y="264" type="line"/>
      <point x="1380" y="336" type="line"/>
      <point x="60" y="336" type="line"/>
    </contour>
  </outline>
</glyph>
<glyph name="quotesingle.001" format="2">
  <advance width="290"/>
  <outline>
    <contour>
      <point x="103" y="540" type="line"/>
      <point x="187" y="540" type="line"/>
      <point x="247" y="900" type="line"/>
      <point x="43" y="900" type="line"/>
    </contour>
  </outline>
</glyph>
<glyph name="registered.lf" format="2">
  <advance width="1260"/>
  <outline>
    <contour>
      <point x="412" y="90" type="line"/>
      <point x="568" y="90" type="line"/>
      <point x="568" y="630" type="line"/>
      <point x="412" y="630" type="line"/>
    </contour>
    <contour>
      <point x="493" y="235" type="line"/>
      <point x="641" y="235" type="line" smooth="yes"/>
      <point x="776" y="235"/>
      <point x="866" y="319"/>
      <point x="866" y="431" type="curve" smooth="yes"/>
      <point x="866" y="539"/>
      <point x="781" y="630"/>
      <point x="641" y="630" type="curve" smooth="yes"/>
      <point x="493" y="630" type="line"/>
      <point x="493" y="505" type="line"/>
      <point x="623" y="505" type="line" smooth="yes"/>
      <point x="676" y="505"/>
      <point x="710" y="475"/>
      <point x="710" y="431" type="curve" smooth="yes"/>
      <point x="710" y="393"/>
      <point x="682" y="355"/>
      <point x="623" y="355" type="curve" smooth="yes"/>
      <point x="493" y="355" type="line"/>
    </contour>
    <contour>
      <point x="735" y="90" type="line"/>
      <point x="918" y="90" type="line"/>
      <point x="757" y="320" type="line"/>
      <point x="576" y="320" type="line"/>
    </contour>
    <contour>
      <point x="630" y="-192" type="curve" smooth="yes"/>
      <point x="938" y="-192"/>
      <point x="1188" y="55"/>
      <point x="1188" y="360" type="curve" smooth="yes"/>
      <point x="1188" y="665"/>
      <point x="938" y="912"/>
      <point x="630" y="912" type="curve" smooth="yes"/>
      <point x="322" y="912"/>
      <point x="72" y="665"/>
      <point x="72" y="360" type="curve" smooth="yes"/>
      <point x="72" y="55"/>
      <point x="322" y="-192"/>
    </contour>
    <contour>
      <point x="630" y="-60" type="curve" smooth="yes"/>
      <point x="398" y="-60"/>
      <point x="210" y="128"/>
      <point x="210" y="360" type="curve" smooth="yes"/>
      <point x="210" y="592"/>
      <point x="398" y="780"/>
      <point x="630" y="780" type="curve" smooth="yes"/>
      <point x="862" y="780"/>
      <point x="1050" y="592"/>
      <point x="1050" y="360" type="curve" smooth="yes"/>
      <point x="1050" y="128"/>
      <point x="862" y="-60"/>
    </contour>
  </outline>
</glyph>
<glyph name="six.numr" format="2">
  <advance width="480"/>
  <outline>
    <contour>
      <point x="240" y="402" type="curve" smooth="yes"/>
      <point x="350" y="402"/>
      <point x="441" y="482"/>
      <point x="441" y="586" type="curve" smooth="yes"/>
      <point x="441" y="688"/>
      <point x="356" y="763"/>
      <point x="254" y="763" type="curve" smooth="yes"/>
      <point x="228" y="763"/>
      <point x="198" y="757"/>
      <point x="174" y="734" type="curve"/>
      <point x="214" y="720" type="line"/>
      <point x="317" y="900" type="line"/>
      <point x="182" y="900" type="line"/>
      <point x="62" y="678" type="line" smooth="yes"/>
      <point x="48" y="651"/>
      <point x="39" y="619"/>
      <point x="39" y="588" type="curve" smooth="yes"/>
      <point x="39" y="483"/>
      <point x="130" y="402"/>
    </contour>
    <contour>
      <point x="240" y="512" type="curve" smooth="yes"/>
      <point x="198" y="512"/>
      <point x="165" y="546"/>
      <point x="165" y="586" type="curve" smooth="yes"/>
      <point x="165" y="628"/>
      <point x="198" y="662"/>
      <point x="240" y="662" type="curve" smooth="yes"/>
      <point x="282" y="662"/>
      <point x="315" y="628"/>
      <point x="315" y="586" type="curve" smooth="yes"/>
      <point x="315" y="546"/>
      <point x="281" y="512"/>
    </contour>
  </outline>
</glyph>
